<mxfile host="app.diagrams.net" modified="2023-10-30T11:52:25.777Z" agent="Mozilla/5.0 (X11; Linux x86_64; rv:109.0) Gecko/20100101 Firefox/119.0" etag="KjkwEczDbdQpo-JVPIbv" version="22.0.8" type="device" pages="4">
  <diagram name="Page-1" id="NtChmuqljO3nVXqdNnNO">
    <mxGraphModel dx="1434" dy="736" grid="1" gridSize="10" guides="1" tooltips="1" connect="1" arrows="1" fold="1" page="1" pageScale="1" pageWidth="827" pageHeight="1169" math="0" shadow="0">
      <root>
        <mxCell id="0" />
        <mxCell id="1" parent="0" />
        <mxCell id="Wm9gbfXN26DCYTcKyDwa-2" value="account management" style="rounded=0;whiteSpace=wrap;html=1;" vertex="1" parent="1">
          <mxGeometry x="360" y="360" width="180" height="180" as="geometry" />
        </mxCell>
        <mxCell id="Wm9gbfXN26DCYTcKyDwa-4" value="backpacked management" style="rounded=0;whiteSpace=wrap;html=1;" vertex="1" parent="1">
          <mxGeometry x="540" y="360" width="180" height="180" as="geometry" />
        </mxCell>
        <mxCell id="Wm9gbfXN26DCYTcKyDwa-5" value="player game history" style="rounded=0;whiteSpace=wrap;html=1;" vertex="1" parent="1">
          <mxGeometry x="360" y="540" width="360" height="80" as="geometry" />
        </mxCell>
        <mxCell id="Wm9gbfXN26DCYTcKyDwa-7" value="Page 1" style="text;html=1;align=center;verticalAlign=middle;resizable=0;points=[];autosize=1;strokeColor=none;fillColor=none;" vertex="1" parent="1">
          <mxGeometry x="510" y="200" width="60" height="30" as="geometry" />
        </mxCell>
        <mxCell id="z0PuxIG5s0yod2q29iUc-1" value="&amp;lt;header&amp;gt;&lt;br&gt;&lt;div&gt;&amp;lt;navbar&amp;gt;&lt;/div&gt;" style="rounded=0;whiteSpace=wrap;html=1;" vertex="1" parent="1">
          <mxGeometry x="360" y="280" width="360" height="80" as="geometry" />
        </mxCell>
      </root>
    </mxGraphModel>
  </diagram>
  <diagram id="UY7NS54lrRZeLjHGlAnx" name="Page-2">
    <mxGraphModel dx="1434" dy="736" grid="1" gridSize="10" guides="1" tooltips="1" connect="1" arrows="1" fold="1" page="1" pageScale="1" pageWidth="827" pageHeight="1169" math="0" shadow="0">
      <root>
        <mxCell id="0" />
        <mxCell id="1" parent="0" />
        <mxCell id="_5Ghk-4htdhzCRjsG-hW-1" value="Page 2" style="text;html=1;align=center;verticalAlign=middle;resizable=0;points=[];autosize=1;strokeColor=none;fillColor=none;" vertex="1" parent="1">
          <mxGeometry x="354" y="148" width="60" height="30" as="geometry" />
        </mxCell>
        <mxCell id="6FhV6MyHNFElbCIZvOkx-1" value="&amp;lt;header&amp;gt;&lt;br&gt;&lt;div&gt;&amp;lt;navbar&amp;gt;&lt;/div&gt;" style="rounded=0;whiteSpace=wrap;html=1;" vertex="1" parent="1">
          <mxGeometry x="204" y="200" width="360" height="80" as="geometry" />
        </mxCell>
        <mxCell id="6FhV6MyHNFElbCIZvOkx-2" value="sellable items" style="rounded=0;whiteSpace=wrap;html=1;" vertex="1" parent="1">
          <mxGeometry x="204" y="280" width="360" height="80" as="geometry" />
        </mxCell>
        <mxCell id="6FhV6MyHNFElbCIZvOkx-3" value="buyable items" style="rounded=0;whiteSpace=wrap;html=1;" vertex="1" parent="1">
          <mxGeometry x="204" y="360" width="360" height="80" as="geometry" />
        </mxCell>
        <mxCell id="6FhV6MyHNFElbCIZvOkx-4" value="&amp;lt;footer&amp;gt;" style="rounded=0;whiteSpace=wrap;html=1;" vertex="1" parent="1">
          <mxGeometry x="204" y="440" width="360" height="80" as="geometry" />
        </mxCell>
      </root>
    </mxGraphModel>
  </diagram>
  <diagram id="kvmcGW_oQRVhYGiXQZU_" name="Page-3">
    <mxGraphModel dx="1434" dy="736" grid="1" gridSize="10" guides="1" tooltips="1" connect="1" arrows="1" fold="1" page="1" pageScale="1" pageWidth="827" pageHeight="1169" math="0" shadow="0">
      <root>
        <mxCell id="0" />
        <mxCell id="1" parent="0" />
        <mxCell id="uvr7-ooPT1b1YH42zriA-1" value="Page 3" style="text;html=1;align=center;verticalAlign=middle;resizable=0;points=[];autosize=1;strokeColor=none;fillColor=none;" vertex="1" parent="1">
          <mxGeometry x="354" y="148" width="60" height="30" as="geometry" />
        </mxCell>
        <mxCell id="IySB-HiOetfxFR6IcAhD-1" value="&amp;lt;header&amp;gt;&lt;br&gt;&lt;div&gt;&amp;lt;navbar&amp;gt;&lt;/div&gt;" style="rounded=0;whiteSpace=wrap;html=1;" vertex="1" parent="1">
          <mxGeometry x="204" y="200" width="360" height="80" as="geometry" />
        </mxCell>
        <mxCell id="WWqRCYwHZ1I5q6H4caKz-1" value="&lt;div&gt;create a game&lt;/div&gt;&lt;div&gt;(access page 3.1)&lt;/div&gt;" style="rounded=0;whiteSpace=wrap;html=1;" vertex="1" parent="1">
          <mxGeometry x="204" y="280" width="180" height="180" as="geometry" />
        </mxCell>
        <mxCell id="WWqRCYwHZ1I5q6H4caKz-2" value="game finder" style="rounded=0;whiteSpace=wrap;html=1;" vertex="1" parent="1">
          <mxGeometry x="384" y="280" width="180" height="180" as="geometry" />
        </mxCell>
      </root>
    </mxGraphModel>
  </diagram>
  <diagram id="zXMl3JuS9bX__jScJMoR" name="Page-4">
    <mxGraphModel dx="1434" dy="736" grid="1" gridSize="10" guides="1" tooltips="1" connect="1" arrows="1" fold="1" page="1" pageScale="1" pageWidth="827" pageHeight="1169" math="0" shadow="0">
      <root>
        <mxCell id="0" />
        <mxCell id="1" parent="0" />
        <mxCell id="kyklChlMzMpWkVVHJ_v2-1" value="Page 3.1" style="text;html=1;align=center;verticalAlign=middle;resizable=0;points=[];autosize=1;strokeColor=none;fillColor=none;" vertex="1" parent="1">
          <mxGeometry x="349" y="148" width="70" height="30" as="geometry" />
        </mxCell>
        <mxCell id="sz3RmRogoMf0lF_OcY7T-1" value="&amp;lt;header&amp;gt;&lt;br&gt;&lt;div&gt;&amp;lt;navbar&amp;gt;&lt;/div&gt;" style="rounded=0;whiteSpace=wrap;html=1;" vertex="1" parent="1">
          <mxGeometry x="204" y="200" width="360" height="80" as="geometry" />
        </mxCell>
        <mxCell id="ebYhatkDanjFNOvu0lQd-1" value="the game" style="rounded=0;whiteSpace=wrap;html=1;" vertex="1" parent="1">
          <mxGeometry x="204" y="280" width="360" height="80" as="geometry" />
        </mxCell>
      </root>
    </mxGraphModel>
  </diagram>
</mxfile>
